# xmcd
# 
# Track frame offsets:
#     150
#     19318
#     31917
#     45970
#     60146
#     76012
#     88558
#     100828
#     115068
#     131310
#     143577
#     154285
#     165649
#     177643
#     191235
#     204156
#     217508
#     229989
#     240650
#     253680
#     270381
#     289929
#     299608
#     312670
#     324441
# 
# Disc length: 4794
# 
# Revision: 1
# Processed by: cddbd v1.5.2PL0 Copyright (c) Steve Scherf et al.
# Submitted via: fre:ac v1.0.17
# 
DISCID=5512b819
DTITLE=B.B. King - Here's One That You Didn't Know About
DYEAR=2015
DGENRE=Blues
TTITLE0=Catfish Blues
TTITLE1=Be Careful Baby
TTITLE2=Growing Old
TTITLE3=I Gotta Find My Baby
TTITLE4=Long Nights (The Feeling They Call the Blues)
TTITLE5=Loving You in Vain
TTITLE6=Shut Your Mouth
TTITLE7=Sweet Little Angel (v. 1)
TTITLE8=Sweet Little Angel (v. 2)
TTITLE9=Bad Case of Love
TTITLE10=Talkin' the Blues
TTITLE11=Whole Lotta Love
TTITLE12=You Know I Go for You
TTITLE13=You've Been an Angel
TTITLE14=Be Careful with a Fool
TTITLE15=When My Heart Beats Like a Hammer
TTITLE16=Don't You Want a Man Like Me
TTITLE17=Early in the Morning
TTITLE18=I Wonder Why
TTITLE19=Partin' Time
TTITLE20=Soul Beat
TTITLE21=Why Not
TTITLE22=The Woman I Love
TTITLE23=Whole Lotta Meat
TTITLE24=Going Down Slow
EXTD=
EXTT0=
EXTT1=
EXTT2=
EXTT3=
EXTT4=
EXTT5=
EXTT6=
EXTT7=
EXTT8=
EXTT9=
EXTT10=
EXTT11=
EXTT12=
EXTT13=
EXTT14=
EXTT15=
EXTT16=
EXTT17=
EXTT18=
EXTT19=
EXTT20=
EXTT21=
EXTT22=
EXTT23=
EXTT24=
PLAYORDER=
